<mxfile host="app.diagrams.net" modified="2021-12-19T06:57:41.771Z" agent="5.0 (Windows NT 10.0; Win64; x64) AppleWebKit/537.36 (KHTML, like Gecko) Chrome/95.0.4638.69 Safari/537.36" etag="NydgL780O9P8i9am0UKt" version="16.0.0" type="github">
  <diagram id="9VYlf7xLoxBSczJYT-ze" name="Page-1">
    <mxGraphModel dx="981" dy="526" grid="1" gridSize="10" guides="1" tooltips="1" connect="1" arrows="1" fold="1" page="1" pageScale="1" pageWidth="827" pageHeight="1169" math="0" shadow="0">
      <root>
        <mxCell id="0" />
        <mxCell id="1" parent="0" />
        <mxCell id="5JS05ig_G60j2r-XplZq-17" style="edgeStyle=entityRelationEdgeStyle;rounded=0;orthogonalLoop=1;jettySize=auto;html=1;fontSize=20;strokeWidth=2;strokeColor=#009900;entryX=0;entryY=0.5;entryDx=0;entryDy=0;" parent="1" source="5JS05ig_G60j2r-XplZq-1" target="5JS05ig_G60j2r-XplZq-3" edge="1">
          <mxGeometry relative="1" as="geometry" />
        </mxCell>
        <mxCell id="5JS05ig_G60j2r-XplZq-1" value="&lt;font style=&quot;font-size: 20px&quot;&gt;&lt;b&gt;a&lt;/b&gt;&lt;/font&gt;" style="text;html=1;strokeColor=#6c8ebf;fillColor=#dae8fc;align=center;verticalAlign=middle;whiteSpace=wrap;rounded=0;" parent="1" vertex="1">
          <mxGeometry x="80" y="85" width="30" height="30" as="geometry" />
        </mxCell>
        <mxCell id="5JS05ig_G60j2r-XplZq-2" value="9" style="rounded=0;whiteSpace=wrap;html=1;fontSize=20;fillColor=#ffe6cc;strokeColor=#d79b00;" parent="1" vertex="1">
          <mxGeometry x="440" y="160" width="160" height="40" as="geometry" />
        </mxCell>
        <mxCell id="5JS05ig_G60j2r-XplZq-3" value="&lt;span&gt;&lt;/span&gt;&lt;strong class=&quot;r-b88u0q&quot;&gt;140735234512784&lt;/strong&gt;" style="text;html=1;strokeColor=none;fillColor=none;align=center;verticalAlign=middle;whiteSpace=wrap;rounded=0;fontSize=20;fontColor=#999999;" parent="1" vertex="1">
          <mxGeometry x="255" y="165" width="170" height="30" as="geometry" />
        </mxCell>
        <mxCell id="5JS05ig_G60j2r-XplZq-6" value="&lt;b&gt;...&lt;/b&gt;" style="rounded=0;whiteSpace=wrap;html=1;fontSize=20;fillColor=#ffe6cc;strokeColor=#d79b00;" parent="1" vertex="1">
          <mxGeometry x="440" y="120" width="160" height="40" as="geometry" />
        </mxCell>
        <mxCell id="5JS05ig_G60j2r-XplZq-7" value="&lt;b&gt;...&lt;/b&gt;" style="rounded=0;whiteSpace=wrap;html=1;fontSize=20;fillColor=#ffe6cc;strokeColor=#d79b00;" parent="1" vertex="1">
          <mxGeometry x="440" y="80" width="160" height="40" as="geometry" />
        </mxCell>
        <mxCell id="5JS05ig_G60j2r-XplZq-8" value="&lt;b&gt;...&lt;/b&gt;" style="rounded=0;whiteSpace=wrap;html=1;fontSize=20;fillColor=#ffe6cc;strokeColor=#d79b00;" parent="1" vertex="1">
          <mxGeometry x="440" y="200" width="160" height="40" as="geometry" />
        </mxCell>
        <mxCell id="5JS05ig_G60j2r-XplZq-9" value="&lt;b&gt;...&lt;/b&gt;" style="rounded=0;whiteSpace=wrap;html=1;fontSize=20;fillColor=#ffe6cc;strokeColor=#d79b00;" parent="1" vertex="1">
          <mxGeometry x="440" y="240" width="160" height="40" as="geometry" />
        </mxCell>
        <mxCell id="5JS05ig_G60j2r-XplZq-10" value="&lt;b&gt;140735234512752&lt;/b&gt;" style="text;html=1;strokeColor=none;fillColor=none;align=center;verticalAlign=middle;whiteSpace=wrap;rounded=0;fontSize=20;fontColor=#999999;" parent="1" vertex="1">
          <mxGeometry x="310" y="125" width="60" height="30" as="geometry" />
        </mxCell>
        <mxCell id="5JS05ig_G60j2r-XplZq-11" value="&lt;b&gt;140735234512720&lt;/b&gt;" style="text;html=1;strokeColor=none;fillColor=none;align=center;verticalAlign=middle;whiteSpace=wrap;rounded=0;fontSize=20;fontColor=#999999;" parent="1" vertex="1">
          <mxGeometry x="310" y="85" width="60" height="30" as="geometry" />
        </mxCell>
        <mxCell id="5JS05ig_G60j2r-XplZq-12" value="&lt;b&gt;140735234512816&lt;/b&gt;" style="text;html=1;strokeColor=none;fillColor=none;align=center;verticalAlign=middle;whiteSpace=wrap;rounded=0;fontSize=20;fontColor=#999999;" parent="1" vertex="1">
          <mxGeometry x="310" y="205" width="60" height="30" as="geometry" />
        </mxCell>
        <mxCell id="5JS05ig_G60j2r-XplZq-13" value="&lt;b&gt;140735234512848&lt;/b&gt;" style="text;html=1;strokeColor=none;fillColor=none;align=center;verticalAlign=middle;whiteSpace=wrap;rounded=0;fontSize=20;fontColor=#999999;" parent="1" vertex="1">
          <mxGeometry x="310" y="245" width="60" height="30" as="geometry" />
        </mxCell>
        <mxCell id="5JS05ig_G60j2r-XplZq-18" value="&lt;b&gt;&lt;font color=&quot;#999999&quot;&gt;Memory address&lt;/font&gt;&lt;/b&gt;" style="text;html=1;strokeColor=none;fillColor=none;align=center;verticalAlign=middle;whiteSpace=wrap;rounded=0;fontSize=20;" parent="1" vertex="1">
          <mxGeometry x="255" y="40" width="170" height="30" as="geometry" />
        </mxCell>
        <mxCell id="5JS05ig_G60j2r-XplZq-19" value="&lt;b&gt;&lt;font&gt;Memory value&lt;/font&gt;&lt;/b&gt;" style="text;html=1;strokeColor=none;fillColor=none;align=center;verticalAlign=middle;whiteSpace=wrap;rounded=0;fontSize=20;fontColor=#000000;" parent="1" vertex="1">
          <mxGeometry x="435" y="40" width="170" height="30" as="geometry" />
        </mxCell>
        <mxCell id="4YvRxLZk36wpLKAolRmS-1" value="&lt;font style=&quot;font-size: 20px&quot;&gt;&lt;b&gt;b&lt;/b&gt;&lt;/font&gt;" style="text;html=1;strokeColor=#9673a6;fillColor=#e1d5e7;align=center;verticalAlign=middle;whiteSpace=wrap;rounded=0;" parent="1" vertex="1">
          <mxGeometry x="80" y="245" width="30" height="30" as="geometry" />
        </mxCell>
        <mxCell id="4YvRxLZk36wpLKAolRmS-3" style="edgeStyle=entityRelationEdgeStyle;rounded=0;orthogonalLoop=1;jettySize=auto;html=1;fontSize=20;strokeWidth=2;strokeColor=#009900;entryX=0;entryY=0.5;entryDx=0;entryDy=0;" parent="1" target="5JS05ig_G60j2r-XplZq-3" edge="1">
          <mxGeometry relative="1" as="geometry">
            <mxPoint x="110" y="260" as="sourcePoint" />
            <mxPoint x="250" y="180" as="targetPoint" />
          </mxGeometry>
        </mxCell>
      </root>
    </mxGraphModel>
  </diagram>
</mxfile>
